<svg width="22" height="24" viewBox="0 0 22 24" fill="none" xmlns="http://www.w3.org/2000/svg">
<path d="M4.33332 24C3.59998 24 2.97198 23.7387 2.44932 23.216C1.92665 22.6933 1.66576 22.0658 1.66665 21.3333V4C1.28887 4 0.971985 3.872 0.715985 3.616C0.459985 3.36 0.332429 3.04356 0.333318 2.66667C0.333318 2.28889 0.461318 1.972 0.717318 1.716C0.973318 1.46 1.28976 1.33245 1.66665 1.33334H6.99998C6.99998 0.95556 7.12798 0.638671 7.38398 0.382671C7.63998 0.126671 7.95643 -0.000884275 8.33332 4.61361e-06H13.6667C14.0444 4.61361e-06 14.3613 0.128005 14.6173 0.384005C14.8733 0.640005 15.0009 0.956449 15 1.33334H20.3333C20.7111 1.33334 21.028 1.46134 21.284 1.71734C21.54 1.97334 21.6675 2.28978 21.6667 2.66667C21.6667 3.04445 21.5387 3.36134 21.2827 3.61734C21.0267 3.87334 20.7102 4.00089 20.3333 4V21.3333C20.3333 22.0667 20.072 22.6947 19.5493 23.2173C19.0267 23.74 18.3991 24.0009 17.6667 24H4.33332ZM4.33332 4V21.3333H17.6667V4H4.33332ZM6.99998 17.3333C6.99998 17.7111 7.12798 18.028 7.38398 18.284C7.63998 18.54 7.95643 18.6676 8.33332 18.6667C8.7111 18.6667 9.02798 18.5387 9.28398 18.2827C9.53998 18.0267 9.66754 17.7102 9.66665 17.3333V8C9.66665 7.62223 9.53865 7.30534 9.28265 7.04934C9.02665 6.79334 8.71021 6.66578 8.33332 6.66667C7.95554 6.66667 7.63865 6.79467 7.38265 7.05067C7.12665 7.30667 6.9991 7.62312 6.99998 8V17.3333ZM12.3333 17.3333C12.3333 17.7111 12.4613 18.028 12.7173 18.284C12.9733 18.54 13.2898 18.6676 13.6667 18.6667C14.0444 18.6667 14.3613 18.5387 14.6173 18.2827C14.8733 18.0267 15.0009 17.7102 15 17.3333V8C15 7.62223 14.872 7.30534 14.616 7.04934C14.36 6.79334 14.0435 6.66578 13.6667 6.66667C13.2889 6.66667 12.972 6.79467 12.716 7.05067C12.46 7.30667 12.3324 7.62312 12.3333 8V17.3333Z" fill="black"/>
</svg>
