<svg width="25" height="25" viewBox="0 0 25 25" fill="none" xmlns="http://www.w3.org/2000/svg">
<path d="M2.66667 22.3333H4.53333L16.0333 10.8333L14.1667 8.96667L2.66667 20.4667V22.3333ZM21.7333 8.90001L16.0667 3.30001L17.9333 1.43334C18.4444 0.922227 19.0724 0.666672 19.8173 0.666672C20.5622 0.666672 21.1898 0.922227 21.7 1.43334L23.5667 3.30001C24.0778 3.81112 24.3444 4.42801 24.3667 5.15067C24.3889 5.87334 24.1444 6.48978 23.6333 7.00001L21.7333 8.90001ZM19.8 10.8667L5.66667 25H0V19.3333L14.1333 5.20001L19.8 10.8667ZM15.1 9.90001L14.1667 8.96667L16.0333 10.8333L15.1 9.90001Z" fill="black"/>
</svg>
